<?xml version="1.0" standalone="no"?>
<!DOCTYPE svg PUBLIC "-//W3C//DTD SVG 20010904//EN"
 "http://www.w3.org/TR/2001/REC-SVG-20010904/DTD/svg10.dtd">
<svg version="1.0" xmlns="http://www.w3.org/2000/svg"
 width="260.000000pt" height="260.000000pt" viewBox="0 0 260.000000 260.000000"
 preserveAspectRatio="xMidYMid meet">
<metadata>
Created by potrace 1.11, written by Peter Selinger 2001-2013
</metadata>
<g transform="translate(0.000000,260.000000) scale(0.100000,-0.100000)"
fill="#000000" stroke="none">
<path d="M0 1910 c0 -564 1 -600 18 -601 9 -1 21 -1 25 0 5 1 6 -3 2 -9 -6
-10 10 -47 19 -43 13 5 34 -10 30 -21 -2 -6 7 -23 21 -36 31 -29 33 -19 3 11
l-23 23 25 -16 c14 -8 27 -26 28 -38 3 -18 6 -20 13 -9 7 11 9 8 9 -9 0 -13 4
-20 10 -17 6 3 10 1 10 -4 0 -28 37 -47 88 -46 38 0 53 -4 56 -15 3 -11 4 -11
5 3 1 10 9 17 21 17 14 0 18 -5 14 -17 -4 -11 -3 -14 3 -7 9 11 77 13 88 2 4
-4 16 -2 26 5 15 9 23 9 39 0 14 -9 21 -10 26 -1 5 7 3 8 -6 3 -9 -5 -11 -4
-6 3 10 17 24 15 29 -6 4 -16 5 -16 6 1 1 10 9 17 21 17 14 0 18 -5 14 -17 -4
-11 -2 -14 3 -8 4 6 17 15 27 20 10 6 23 21 27 32 7 18 5 21 -9 16 -15 -6 -15
-5 -3 10 11 14 11 17 0 17 -8 0 -5 6 7 15 18 15 18 15 0 8 -13 -4 -17 -3 -12
5 4 7 2 12 -6 12 -9 0 -9 3 2 10 8 5 11 10 6 10 -6 0 -5 5 2 12 14 14 16 32 3
24 -5 -4 -8 1 -7 10 1 8 9 20 17 25 11 7 11 9 -3 9 -15 0 -16 4 -8 26 13 33
13 47 -1 38 -8 -4 -9 1 -5 17 3 13 3 18 0 12 -3 -7 -12 -13 -20 -13 -9 0 -13
4 -9 9 3 5 1 12 -4 15 -5 4 -12 3 -15 -2 -6 -9 -87 -9 -103 1 -6 4 -15 3 -18
-3 -5 -8 -11 -8 -20 0 -10 8 -16 7 -24 -7 -8 -14 -10 -15 -11 -3 0 13 -1 13
-10 0 -8 -13 -12 -12 -29 7 -11 11 -26 23 -33 26 -10 4 -10 8 2 16 8 6 10 11
5 11 -6 0 -11 9 -12 20 -1 13 2 18 10 13 7 -4 5 2 -3 12 -8 10 -10 16 -3 12
13 -8 13 47 0 59 -11 11 -8 26 3 19 6 -3 10 -1 10 4 0 6 -4 11 -10 11 -5 0
-10 5 -10 11 0 5 4 8 8 5 5 -3 9 1 9 9 0 8 -4 15 -9 15 -4 0 -8 5 -8 11 0 5 4
8 9 5 5 -4 8 2 6 11 -2 10 -4 22 -4 26 -1 5 -7 5 -13 2 -7 -4 -5 0 5 8 14 11
15 16 5 20 -10 4 -10 8 2 16 13 10 13 11 0 11 -13 0 -13 1 0 10 14 9 7 14 -13
11 -5 -1 -6 3 -2 9 3 6 11 8 16 5 5 -4 9 -1 9 4 0 6 -4 11 -10 11 -5 0 -10 5
-10 11 0 5 4 8 9 5 5 -4 8 2 6 11 -2 10 -4 22 -4 26 -1 5 -7 5 -13 2 -7 -4 -5
0 5 8 14 11 15 16 5 20 -10 4 -10 8 2 16 13 10 13 11 0 11 -9 0 -11 3 -5 8 11
8 16 74 5 67 -4 -2 -7 11 -7 30 0 22 4 32 11 28 6 -4 4 2 -4 12 -9 11 -10 16
-2 11 9 -5 11 -1 8 16 -3 13 -5 27 -5 31 -1 5 -7 5 -13 2 -7 -4 -4 1 6 9 15
12 16 16 5 16 -12 0 -12 2 1 10 8 5 10 10 3 10 -6 0 -10 8 -8 18 1 9 10 16 19
16 12 -2 15 3 11 20 -5 16 -1 14 15 -9 12 -16 20 -22 16 -12 -3 9 -2 17 2 18
4 0 15 2 25 4 12 2 17 -1 13 -10 -3 -10 0 -12 11 -8 11 4 14 2 9 -5 -4 -7 -2
-12 3 -12 15 0 14 13 -1 29 -11 10 -10 12 2 9 8 -2 22 -11 31 -21 15 -15 17
-16 23 -2 4 11 2 14 -7 9 -6 -4 -9 -4 -5 1 10 11 78 14 72 3 -3 -5 -11 -5 -17
-1 -7 4 -6 0 2 -10 15 -19 26 -23 15 -5 -5 7 -2 9 9 5 10 -4 14 -2 11 7 -4 9
11 12 58 12 63 -1 91 -12 80 -31 -3 -5 2 -4 11 4 20 16 23 25 5 15 -10 -6 -10
-4 -1 6 11 12 16 11 29 -6 8 -10 13 -13 9 -7 -4 9 -1 11 10 7 9 -4 13 -9 11
-12 -3 -3 2 -11 12 -19 13 -11 13 -14 2 -10 -11 3 -15 -2 -15 -19 1 -13 5 -27
10 -31 4 -5 5 -2 0 6 -6 10 -4 12 5 6 10 -6 10 -11 -3 -20 -9 -7 -14 -15 -10
-18 3 -4 13 -1 21 6 13 11 14 9 2 -10 -8 -12 -17 -20 -20 -18 -3 2 -5 -15 -4
-37 1 -22 8 -44 15 -49 10 -6 11 -9 2 -9 -7 0 -13 -11 -13 -25 0 -14 4 -25 9
-25 12 0 4 -54 -8 -58 -6 -2 -8 -8 -5 -13 3 -6 12 -5 21 3 15 12 15 11 3 -9
-8 -12 -17 -20 -21 -18 -9 6 -1 -58 9 -64 11 -9 6 -55 -7 -59 -6 -2 -8 -8 -5
-13 3 -6 12 -5 21 3 15 12 15 11 3 -9 -8 -12 -17 -20 -21 -18 -9 6 -1 -58 9
-64 5 -3 8 -16 8 -27 0 -15 -5 -20 -15 -16 -9 3 -12 1 -8 -5 4 -6 4 -13 0 -16
-5 -2 -3 -2 4 -1 6 2 14 -4 17 -12 3 -8 2 -13 -3 -10 -5 3 -11 -1 -14 -9 -4
-9 -1 -12 7 -9 7 3 13 -2 13 -10 0 -8 -6 -12 -12 -9 -17 6 -10 -47 7 -58 10
-7 10 -9 1 -9 -7 0 -13 -6 -13 -14 0 -8 6 -17 13 -20 6 -4 2 -4 -11 -2 -12 2
-20 0 -16 -5 3 -5 11 -9 17 -9 7 0 13 -9 13 -19 0 -11 -5 -17 -10 -14 -5 4 -7
-1 -3 -10 3 -10 2 -17 -4 -17 -6 0 -7 -5 -4 -10 5 -8 12 -7 22 2 15 12 15 11
3 -9 -8 -12 -17 -20 -20 -18 -3 2 -5 -15 -4 -38 1 -23 7 -43 13 -45 7 -2 6 -8
-3 -18 -15 -14 -10 -58 5 -48 5 3 9 0 9 -5 0 -6 -4 -11 -10 -11 -5 0 -2 -8 8
-18 15 -16 18 -16 26 -3 8 13 10 12 17 -4 7 -17 8 -18 8 -2 1 10 9 17 21 17
14 0 18 -5 13 -18 -6 -15 -5 -15 12 2 18 18 19 18 26 0 7 -17 8 -17 8 -1 1 10
9 17 21 17 14 0 18 -5 14 -18 -4 -10 -3 -13 3 -6 10 12 72 13 91 0 12 -7 12
-4 1 15 -11 21 -10 22 3 12 8 -7 18 -9 22 -5 4 4 6 3 4 -3 -1 -5 1 -10 7 -10
5 0 9 5 7 11 -1 6 4 11 13 11 8 0 12 -4 9 -9 -3 -4 2 -5 11 -2 11 5 13 10 5
19 -8 10 -8 15 1 21 8 5 9 3 4 -6 -5 -8 -4 -11 3 -6 6 4 8 14 5 23 -5 12 -3
14 8 9 8 -4 5 0 -5 8 -11 9 -25 16 -30 16 -6 0 -3 5 6 11 14 8 15 15 8 35 -9
23 -8 25 12 19 13 -4 18 -3 11 2 -6 4 -10 23 -8 40 1 18 -1 31 -5 28 -11 -7
-20 19 -12 32 4 5 14 13 22 16 12 4 11 6 -2 6 -10 1 -18 8 -18 17 0 8 5 12 10
9 6 -3 10 -2 10 4 0 5 -10 13 -22 17 -18 5 -19 8 -6 15 10 5 14 18 10 34 -2
14 2 33 9 42 8 9 9 14 3 10 -7 -4 -14 -1 -16 6 -7 17 2 38 13 32 5 -4 6 2 2
11 -5 13 -3 15 8 9 12 -7 12 -6 1 7 -10 13 -10 17 0 21 11 4 10 6 0 6 -7 1
-10 6 -6 13 4 6 3 8 -4 4 -6 -3 -9 -15 -7 -26 2 -11 0 -22 -4 -25 -5 -2 -7 9
-6 26 2 17 8 35 15 39 9 5 6 10 -10 15 -20 6 -21 9 -7 16 13 8 14 15 7 35 -9
23 -8 25 12 19 13 -4 18 -3 11 2 -6 4 -10 23 -8 40 1 18 -1 31 -5 28 -11 -7
-20 19 -12 32 4 5 14 13 22 16 12 4 11 6 -2 6 -10 1 -18 8 -18 17 0 8 5 12 10
9 5 -3 10 -2 10 4 0 5 -10 13 -22 17 -18 5 -19 8 -6 15 10 5 14 18 10 34 -2
14 2 33 9 42 8 9 9 14 3 10 -7 -4 -14 -1 -16 6 -7 17 2 38 13 32 5 -4 6 2 2
11 -5 13 -3 15 8 9 12 -7 12 -6 1 7 -10 13 -10 17 0 21 11 4 10 6 0 6 -7 1
-10 6 -6 13 4 6 3 8 -4 4 -6 -3 -9 -15 -7 -26 2 -11 0 -22 -4 -25 -5 -2 -7 9
-6 26 2 17 8 35 15 39 9 5 6 10 -10 15 -20 6 -21 9 -7 16 13 8 14 15 7 35 -9
23 -8 25 12 19 13 -4 18 -3 11 2 -6 4 -10 23 -8 40 1 18 -1 31 -5 28 -11 -7
-20 19 -12 32 4 5 14 13 22 16 12 4 11 6 -2 6 -10 1 -18 8 -18 17 0 8 5 12 10
9 5 -3 10 -2 10 4 0 5 -10 13 -22 17 -18 5 -19 8 -5 15 9 5 14 16 10 24 -3 9
1 23 8 32 12 15 12 16 -3 10 -10 -3 -18 -2 -18 3 0 6 8 10 17 10 15 0 14 2 -3
15 -19 15 -19 15 1 9 16 -5 17 -4 5 5 -10 7 -200 11 -607 11 l-593 0 0 -600z
m1197 335 c0 -17 -13 -20 -21 -6 -4 5 0 12 6 14 7 3 13 6 14 6 0 1 1 -6 1 -14z
m-347 -225 c0 -5 -5 -10 -11 -10 -5 0 -7 5 -4 10 3 6 8 10 11 10 2 0 4 -4 4
-10z m-3 -215 c0 -8 -4 -12 -9 -9 -5 3 -6 10 -3 15 9 13 12 11 12 -6z m350
-40 c0 -17 -13 -20 -21 -6 -4 5 0 12 6 14 7 3 13 6 14 6 0 1 1 -6 1 -14z
m-347 -305 c0 -5 -5 -10 -11 -10 -5 0 -7 5 -4 10 3 6 8 10 11 10 2 0 4 -4 4
-10z m-475 -49 c3 -5 0 -13 -6 -17 -7 -4 -9 -3 -5 4 3 5 0 13 -6 15 -9 4 -10
6 -1 6 6 1 14 -3 18 -8z m82 -23 c-3 -8 -6 -5 -6 6 -1 11 2 17 5 13 3 -3 4
-12 1 -19z m43 13 c0 -5 -7 -12 -16 -15 -14 -5 -15 -4 -4 9 14 17 20 19 20 6z
m697 -116 c0 -17 -13 -20 -21 -6 -4 5 0 12 6 14 7 3 13 6 14 6 0 1 1 -6 1 -14z
m-347 -65 c0 -5 -5 -10 -11 -10 -5 0 -7 5 -4 10 3 6 8 10 11 10 2 0 4 -4 4
-10z m-629 -97 c13 -16 12 -17 -3 -4 -17 13 -22 21 -14 21 2 0 10 -8 17 -17z
m430 -16 c-10 -9 -11 -8 -5 6 3 10 9 15 12 12 3 -3 0 -11 -7 -18z m-227 -5 c3
-5 -1 -9 -9 -9 -8 0 -12 4 -9 9 3 4 7 8 9 8 2 0 6 -4 9 -8z m66 -7 c0 -12 -19
-12 -23 0 -4 9 -1 12 9 8 7 -3 14 -7 14 -8z m574 7 c3 -5 -1 -9 -9 -9 -8 0
-12 4 -9 9 3 4 7 8 9 8 2 0 6 -4 9 -8z"/>
<path d="M1196 2302 c-3 -5 1 -9 9 -9 8 0 12 4 9 9 -3 4 -7 8 -9 8 -2 0 -6 -4
-9 -8z"/>
<path d="M630 2216 c0 -2 7 -7 16 -10 8 -3 12 -2 9 4 -6 10 -25 14 -25 6z"/>
<path d="M673 2205 c0 -8 4 -12 9 -9 4 3 8 9 8 15 0 5 -4 9 -8 9 -5 0 -9 -7
-9 -15z"/>
<path d="M707 2209 c7 -7 15 -10 18 -7 3 3 -2 9 -12 12 -14 6 -15 5 -6 -5z"/>
<path d="M1445 2040 c-4 -6 -11 -8 -16 -5 -5 4 -14 -6 -19 -20 -12 -32 -12
-38 -1 -31 12 8 8 -33 -4 -42 -13 -9 -15 -52 -2 -52 5 0 3 -8 -4 -17 -12 -15
-12 -16 2 -11 13 5 16 0 14 -23 -1 -16 -9 -37 -16 -46 -10 -11 -10 -14 -1 -9
6 4 12 2 12 -3 0 -6 -6 -11 -12 -11 -9 0 -9 -3 1 -9 8 -5 16 -17 17 -25 1 -9
-2 -14 -7 -10 -5 3 -7 9 -5 13 3 4 -1 8 -9 8 -11 0 -12 -4 -4 -13 6 -7 7 -19
3 -25 -5 -8 -2 -10 8 -7 17 7 21 -23 5 -34 -16 -10 -16 -50 0 -44 7 3 13 1 13
-4 0 -9 -14 -14 -32 -11 -5 0 -8 -4 -8 -10 0 -6 7 -9 15 -6 21 9 28 -9 9 -27
-8 -9 -11 -16 -5 -16 19 0 13 -50 -6 -51 -14 0 -12 -3 5 -10 13 -5 20 -13 17
-19 -9 -15 -18 -12 -9 3 4 6 3 9 -1 4 -12 -10 -14 -67 -2 -67 5 0 3 -8 -4 -17
-12 -15 -12 -16 2 -11 13 5 16 0 14 -23 -1 -16 -9 -37 -16 -46 -12 -15 -12
-16 4 -10 9 3 17 2 17 -3 0 -9 -14 -14 -32 -11 -5 0 -8 -4 -8 -10 0 -6 7 -9
15 -6 21 9 28 -9 9 -27 -8 -9 -11 -16 -5 -16 19 0 13 -50 -6 -51 -14 0 -15 -2
-3 -6 30 -12 37 -35 17 -55 -12 -11 -12 -16 1 -28 14 -13 15 -12 9 3 -3 9 -2
17 3 17 6 0 10 -5 10 -11 0 -5 5 -7 10 -4 6 3 10 -2 11 -12 0 -15 2 -14 9 4 9
23 41 23 36 0 -1 -7 -1 -9 2 -4 9 17 41 27 48 15 4 -6 3 -8 -2 -5 -6 3 -16 1
-24 -4 -10 -6 -3 -7 22 -4 20 4 39 1 43 -4 4 -7 12 -7 25 2 16 9 24 9 40 0 14
-9 21 -10 26 -1 5 7 3 8 -6 3 -9 -5 -11 -4 -6 3 10 17 24 15 29 -5 4 -16 5
-16 6 -2 0 9 8 20 17 23 14 5 15 4 5 -8 -9 -11 -9 -16 0 -22 8 -5 9 -3 4 6 -6
10 -4 12 9 7 11 -5 15 -3 10 5 -5 8 -2 9 9 5 10 -3 17 -2 17 3 0 6 -5 10 -11
10 -6 0 -3 7 6 16 15 15 15 18 -1 35 -10 11 -14 22 -11 26 4 3 7 1 7 -5 0 -7
4 -12 9 -12 9 0 7 48 -3 57 -3 3 -1 14 4 24 7 12 6 20 -2 25 -6 4 -8 3 -4 -4
3 -6 2 -13 -3 -16 -5 -4 -8 1 -7 10 1 8 8 19 15 24 9 5 10 9 2 14 -7 5 -8 13
-2 24 7 13 4 24 -12 42 -12 14 -15 19 -7 13 8 -7 17 -13 21 -13 10 0 1 54 -10
58 -7 2 -4 10 5 20 15 14 15 17 -2 29 -15 11 -15 13 -2 13 19 0 16 49 -4 61
-8 6 -9 9 -2 9 17 0 25 28 12 36 -6 4 -8 3 -4 -4 3 -6 2 -13 -3 -16 -5 -4 -8
2 -7 11 2 9 8 19 14 21 7 2 9 9 5 14 -10 17 -12 68 -2 62 5 -3 5 6 -1 20 -8
21 -6 24 10 21 11 -2 23 1 26 7 4 7 2 8 -4 4 -7 -4 -12 -3 -12 2 0 5 9 12 20
15 11 3 18 2 16 -2 -3 -4 -1 -13 3 -20 6 -10 12 -9 25 4 9 9 16 12 16 7 0 -5
7 -9 15 -9 9 0 14 6 11 14 -5 11 -1 11 16 -2 24 -16 42 -20 34 -7 -3 5 1 9 9
9 8 0 12 -4 9 -9 -3 -4 -1 -8 5 -8 5 0 12 8 14 18 4 15 5 15 6 -2 1 -11 6 -16
15 -13 7 3 18 1 24 -5 6 -6 12 -6 17 3 5 8 4 10 -3 5 -7 -4 -12 -2 -12 4 0 6
8 10 18 8 9 -2 16 -9 15 -16 -2 -6 4 -9 13 -5 13 5 13 8 2 15 -9 7 -8 8 7 6
14 -3 19 -10 17 -23 -3 -20 -3 -20 12 0 8 11 16 16 16 11 0 -5 8 -2 17 5 15
12 16 12 10 -5 -6 -15 -5 -17 6 -8 10 8 17 8 24 1 8 -8 13 -7 18 2 5 8 4 10
-3 5 -7 -4 -12 -2 -12 3 0 6 7 11 15 11 8 0 15 -5 15 -11 0 -5 5 -7 12 -3 7 4
8 3 4 -4 -4 -7 -2 -12 3 -12 6 0 11 -5 11 -11 0 -5 -6 -7 -12 -3 -10 6 -10 4
0 -7 14 -15 16 -33 3 -25 -12 8 -8 -13 8 -42 12 -23 12 -23 -11 -11 -21 11
-22 11 -9 -4 7 -10 10 -17 6 -17 -4 0 -2 -7 5 -15 12 -14 7 -19 -13 -16 -5 1
-6 -3 -2 -9 3 -6 12 -7 18 -3 7 4 5 -2 -3 -12 -14 -17 -13 -18 4 -12 15 6 17
5 8 -6 -7 -8 -8 -18 -4 -22 4 -5 -2 -5 -13 -2 -19 7 -19 6 -2 -7 19 -15 23
-31 5 -20 -9 5 -9 2 1 -9 12 -16 8 -22 -12 -18 -5 1 -6 -3 -2 -9 3 -6 12 -7
18 -3 7 4 5 -2 -3 -12 -14 -17 -13 -18 4 -12 16 7 17 5 5 -9 -15 -19 -21 -47
-8 -38 10 6 7 -25 -4 -43 -8 -13 -2 -17 17 -14 5 1 4 -5 -3 -13 -7 -9 -18 -13
-24 -9 -6 3 -7 1 -3 -6 4 -6 13 -8 19 -4 8 4 7 1 -1 -9 -9 -11 -10 -18 -2 -23
6 -3 8 -11 4 -16 -3 -5 -10 -6 -16 -3 -7 5 -8 2 -4 -5 5 -7 15 -10 25 -7 12 5
11 2 -3 -9 -11 -8 -15 -15 -10 -15 5 0 10 -9 11 -21 2 -18 0 -19 -15 -7 -15
12 -16 11 -3 -4 7 -10 10 -18 6 -18 -4 0 -2 -7 5 -15 12 -14 7 -19 -13 -16 -5
1 -5 -3 -2 -9 4 -6 14 -9 24 -6 12 5 11 2 -3 -9 -11 -8 -15 -15 -10 -15 5 0
10 -9 11 -21 2 -18 0 -19 -15 -7 -15 11 -15 11 -6 -2 6 -8 10 -23 9 -33 -2 -9
0 -15 5 -12 4 3 10 -2 13 -10 4 -10 1 -12 -11 -8 -15 6 -15 5 -3 -10 7 -9 9
-17 4 -17 -6 0 -9 -11 -8 -25 2 -14 -1 -23 -6 -19 -5 3 -7 11 -3 17 3 7 -2 3
-11 -8 -13 -17 -17 -18 -25 -5 -8 12 -10 12 -16 -3 -6 -17 -7 -17 -21 0 -8 10
-12 13 -9 7 9 -19 -25 -26 -44 -9 -19 18 -30 19 -30 4 0 -5 5 -7 12 -3 7 5 8
3 4 -5 -6 -9 -13 -8 -29 6 -11 10 -17 12 -13 6 9 -17 -6 -17 -23 -1 -12 11
-13 9 -7 -7 6 -17 4 -16 -21 5 -15 14 -22 18 -15 9 19 -25 -15 -35 -41 -12
-11 10 -17 12 -13 6 4 -8 1 -13 -9 -13 -9 0 -14 4 -11 8 7 11 -31 8 -41 -3 -5
-4 -2 -5 6 0 9 5 12 4 8 -2 -9 -14 -42 -10 -63 8 -11 9 -15 9 -10 2 9 -17 -6
-17 -23 -1 -12 11 -13 9 -7 -7 6 -15 4 -17 -5 -8 -6 6 -18 9 -27 6 -11 -5 -13
-2 -7 8 6 11 5 12 -6 1 -15 -14 -33 -17 -25 -4 3 5 -1 9 -9 9 -8 0 -12 -4 -9
-9 3 -4 -2 -8 -11 -8 -9 0 -14 4 -11 8 7 11 -31 8 -41 -3 -5 -4 -2 -5 6 0 9 5
12 4 8 -2 -4 -6 -18 -8 -32 -6 -13 3 -23 9 -20 12 6 10 -33 7 -42 -4 -5 -4 -2
-5 6 0 9 5 12 4 8 -2 -9 -14 -42 -10 -63 8 -11 9 -15 9 -10 2 9 -17 -6 -17
-23 0 -11 10 -13 9 -8 -4 3 -10 -1 -16 -9 -16 -9 0 -13 7 -9 16 4 13 2 12 -9
-1 -7 -10 -19 -18 -27 -18 -11 0 -11 -2 1 -10 14 -9 7 -15 -14 -11 -5 1 -4 -5
3 -13 7 -8 9 -21 5 -27 -5 -9 -2 -10 9 -6 10 3 17 2 17 -3 0 -9 -14 -14 -32
-11 -5 0 -8 -4 -8 -9 0 -6 9 -10 19 -10 10 0 21 -6 24 -13 3 -8 -1 -14 -9 -14
-7 0 -10 5 -7 11 3 6 0 5 -8 -2 -12 -11 -12 -15 3 -23 20 -11 12 -49 -11 -50
-12 0 -12 -2 3 -8 12 -5 16 -10 9 -14 -15 -9 -9 -43 7 -39 7 2 10 -3 7 -11 -3
-7 5 -19 16 -26 18 -11 20 -11 10 0 -20 20 -16 25 17 25 18 0 29 -4 27 -11 -3
-6 4 -11 14 -11 12 0 15 4 9 11 -14 17 34 13 55 -5 15 -12 17 -12 10 -1 -6 11
-4 13 8 8 9 -3 19 -2 22 3 8 14 46 8 41 -7 -3 -7 0 -15 6 -19 7 -5 8 -2 3 6
-6 10 -4 12 10 6 14 -5 15 -4 7 7 -16 19 29 17 53 -3 15 -12 17 -12 10 -1 -6
11 -4 13 8 8 9 -3 19 -2 22 3 8 14 46 8 41 -7 -3 -7 0 -15 6 -19 7 -5 8 -2 3
6 -6 10 -4 12 10 6 14 -5 15 -4 7 7 -16 19 29 17 53 -3 11 -8 16 -10 12 -4 -8
13 82 12 103 -1 9 -6 12 -4 8 6 -4 11 2 14 26 14 17 -1 39 -5 50 -10 11 -5 26
-3 38 4 16 10 18 10 12 0 -5 -9 2 -11 30 -6 21 3 49 2 63 -4 20 -7 24 -6 20 4
-6 17 54 17 76 -1 13 -11 17 -10 25 4 6 10 16 15 25 11 9 -3 19 -1 23 5 5 7 2
8 -6 3 -9 -6 -11 -4 -6 4 5 7 14 10 22 7 12 -4 12 -2 4 14 -9 16 -8 18 5 14 8
-4 15 -1 15 6 0 6 4 9 9 6 5 -3 11 4 14 15 3 12 10 18 16 14 6 -3 11 0 11 8 0
8 8 21 18 28 16 13 16 13 2 -6 -14 -19 -14 -19 3 -6 10 8 16 20 13 27 -3 7 3
18 12 26 11 9 14 10 8 1 -4 -7 -2 -13 3 -13 6 0 11 7 11 15 0 8 5 16 10 16 6
1 16 2 23 3 9 1 13 131 15 607 2 562 1 607 -15 620 -11 9 -14 10 -9 2 4 -7 3
-13 -3 -13 -5 0 -12 3 -15 8 -6 10 -75 8 -100 -3 -12 -5 -21 -3 -27 6 -5 8 -9
9 -9 3 0 -14 -38 -25 -45 -13 -3 4 -13 5 -22 2 -12 -5 -14 -3 -8 8 6 11 5 12
-6 2 -15 -15 -33 -18 -25 -5 3 5 -1 9 -9 9 -8 0 -12 -4 -9 -9 3 -4 1 -8 -5 -8
-5 0 -12 4 -15 8 -6 10 -32 8 -60 -3 -12 -5 -21 -3 -27 6 -5 8 -9 9 -9 3 0
-19 -40 -25 -47 -7 -5 12 -7 12 -14 1 -7 -11 -11 -10 -19 2 -7 11 -10 11 -10
2 0 -8 -5 -10 -12 -6 -22 14 -49 12 -44 -3 7 -17 1 -17 -18 2 -13 13 -19 14
-36 3 -17 -11 -22 -11 -30 2 -6 10 -10 11 -10 3 0 -7 -9 -13 -21 -13 -11 0
-18 4 -15 9 9 13 -19 7 -38 -8 -14 -12 -16 -11 -10 5 6 16 5 17 -7 7 -7 -7
-17 -13 -22 -13 -4 0 -5 6 -1 13 6 9 4 9 -8 -1 -13 -10 -17 -10 -21 0 -3 8 -6
5 -6 -6 -1 -20 -1 -20 -17 0 -13 15 -15 16 -10 2 3 -12 1 -15 -9 -11 -8 3 -13
9 -10 13 8 13 -21 6 -39 -9 -14 -12 -16 -11 -10 5 6 16 5 17 -7 7 -7 -7 -17
-13 -22 -13 -4 0 -5 6 -1 13 6 9 4 9 -8 -1 -13 -10 -17 -10 -21 0 -3 8 -6 5
-6 -6 -1 -20 -1 -20 -17 0 -13 15 -15 16 -10 2 3 -12 1 -15 -9 -11 -8 3 -13 9
-10 13 8 13 -21 6 -39 -9 -14 -12 -16 -11 -10 5 6 16 5 17 -7 7 -7 -7 -17 -13
-22 -13 -4 0 -5 6 -1 13 5 8 2 8 -9 -2 -14 -11 -17 -11 -17 0 0 8 -6 5 -15 -7
-13 -16 -14 -16 -9 -1 7 18 -1 23 -11 7z m625 -10 c0 -5 -5 -10 -11 -10 -5 0
-7 5 -4 10 3 6 8 10 11 10 2 0 4 -4 4 -10z m-648 -102 c-9 -9 -9 -15 1 -27 11
-14 10 -14 -6 -2 -13 10 -15 17 -6 27 6 8 14 14 17 14 3 0 1 -5 -6 -12z m712
-176 c3 -5 -1 -9 -9 -9 -8 0 -12 4 -9 9 3 4 7 8 9 8 2 0 6 -4 9 -8z m-712
-304 c-9 -9 -9 -15 1 -27 11 -14 10 -14 -6 -2 -13 10 -15 17 -6 27 6 8 14 14
17 14 3 0 1 -5 -6 -12z m348 -102 c0 -3 -4 -8 -10 -11 -5 -3 -10 -1 -10 4 0 6
5 11 10 11 6 0 10 -2 10 -4z m-9 -133 c13 -16 12 -17 -3 -4 -17 13 -22 21 -14
21 2 0 10 -8 17 -17z m-151 -118 c0 -12 -19 -12 -23 0 -4 9 -1 12 9 8 7 -3 14
-7 14 -8z m-190 -434 c0 -6 -4 -12 -8 -15 -5 -3 -9 1 -9 9 0 8 4 15 9 15 4 0
8 -4 8 -9z"/>
<path d="M1395 1960 c3 -5 8 -10 11 -10 2 0 4 5 4 10 0 6 -5 10 -11 10 -5 0
-7 -4 -4 -10z"/>
<path d="M1390 1840 c-11 -7 -11 -10 -2 -10 8 0 10 -5 6 -12 -4 -7 -3 -9 1 -5
7 6 17 37 12 37 -1 0 -9 -5 -17 -10z"/>
<path d="M1196 1822 c-3 -5 1 -9 9 -9 8 0 12 4 9 9 -3 4 -7 8 -9 8 -2 0 -6 -4
-9 -8z"/>
<path d="M1390 1360 c-11 -7 -11 -10 -2 -10 8 0 10 -5 6 -12 -4 -7 -3 -9 1 -5
7 6 17 37 12 37 -1 0 -9 -5 -17 -10z"/>
<path d="M1196 1342 c-3 -5 1 -9 9 -9 8 0 12 4 9 9 -3 4 -7 8 -9 8 -2 0 -6 -4
-9 -8z"/>
<path d="M663 1225 c0 -8 4 -12 9 -9 5 3 6 10 3 15 -9 13 -12 11 -12 -6z"/>
<path d="M1393 1135 c0 -8 4 -12 9 -9 4 3 8 9 8 15 0 5 -4 9 -8 9 -5 0 -9 -7
-9 -15z"/>
<path d="M2117 923 c-10 -9 -9 -23 1 -23 5 0 9 7 9 15 0 17 -1 18 -10 8z"/>
<path d="M864 903 c-10 -11 -14 -11 -14 -2 0 19 -13 1 -17 -23 -2 -11 2 -28 9
-36 10 -12 10 -14 1 -8 -8 4 -13 1 -13 -8 0 -9 4 -16 9 -16 12 0 4 -54 -8 -58
-6 -2 -8 -8 -5 -13 3 -6 12 -5 21 3 15 12 15 11 3 -9 -8 -12 -17 -20 -20 -18
-3 2 -5 -15 -4 -37 1 -22 8 -44 15 -49 10 -6 11 -9 2 -9 -7 0 -13 -6 -13 -14
0 -8 6 -17 13 -20 6 -4 2 -4 -11 -2 -12 2 -20 0 -16 -5 3 -5 11 -9 17 -9 7 0
13 -9 13 -19 0 -11 -5 -17 -10 -14 -5 4 -7 -1 -3 -10 3 -10 2 -17 -4 -17 -6 0
-7 -5 -4 -10 5 -8 12 -7 22 2 15 12 15 11 3 -9 -8 -12 -17 -20 -20 -18 -3 2
-5 -15 -4 -37 1 -22 8 -44 15 -49 8 -5 9 -9 3 -9 -18 0 -23 -49 -7 -66 8 -8
10 -14 4 -14 -15 0 -14 -27 2 -34 6 -4 2 -4 -11 -2 -12 2 -20 0 -16 -5 3 -5
11 -9 17 -9 7 0 13 -9 13 -19 0 -11 -4 -17 -8 -15 -4 3 -8 2 -9 -3 0 -4 -2
-16 -4 -26 -2 -9 1 -15 6 -11 5 3 9 1 9 -5 0 -5 -6 -12 -12 -14 -7 -3 -4 -6 7
-6 12 -1 16 -4 9 -9 -7 -4 -14 -18 -15 -32 l-4 -25 370 0 370 0 0 25 c0 14 -5
33 -11 43 -13 20 -7 67 9 67 6 0 2 7 -9 15 -10 8 -14 15 -9 15 6 0 3 5 -5 11
-13 9 -13 10 0 6 8 -2 14 -11 12 -18 -2 -8 0 -11 4 -6 13 13 11 58 -3 53 -7
-3 -13 -1 -13 4 0 6 7 10 16 10 8 0 12 5 9 10 -4 6 -10 8 -14 6 -4 -3 -8 1 -8
9 0 11 5 12 21 4 19 -9 20 -9 4 4 -10 8 -18 19 -18 25 0 6 -5 14 -12 18 -8 5
-9 2 -5 -10 6 -14 4 -15 -16 -5 l-22 12 20 -24 20 -24 -25 21 c-14 12 -32 25
-40 29 -12 7 -13 6 -3 -6 11 -13 9 -15 -7 -14 -11 1 -23 5 -27 10 -5 4 -2 5 5
1 6 -4 12 -3 12 3 0 5 -9 9 -20 8 -12 -1 -18 -7 -16 -14 3 -8 -1 -10 -11 -6
-12 5 -14 3 -8 -8 7 -11 6 -12 -6 -2 -11 9 -19 9 -26 2 -6 -6 -10 -5 -10 5 0
8 4 13 9 10 4 -3 8 0 8 6 0 7 -7 9 -16 6 -9 -3 -18 -6 -20 -6 -3 0 -2 -4 1
-10 3 -6 -1 -7 -9 -4 -9 3 -14 9 -11 13 2 4 -2 8 -10 8 -18 0 -19 -9 -2 -27
10 -12 9 -12 -4 -2 -9 6 -20 8 -24 4 -5 -4 -5 -2 -2 4 9 15 -20 27 -29 12 -4
-7 -3 -8 4 -4 8 5 10 2 6 -8 -5 -13 -9 -12 -27 4 -11 11 -25 20 -31 20 -5 0
-6 3 -3 6 4 4 13 1 22 -6 13 -11 14 -10 10 3 -4 8 -18 18 -32 22 l-26 6 22 15
c22 16 28 34 10 34 -5 0 -7 -4 -4 -10 4 -6 -1 -7 -11 -3 -14 5 -13 8 7 19 13
7 18 13 12 14 -7 0 -13 10 -13 23 0 13 6 29 13 36 8 9 8 12 0 7 -6 -3 -13 0
-16 6 -6 18 3 39 14 32 5 -3 6 3 2 12 -5 13 -3 15 8 9 12 -7 12 -6 1 7 -10 13
-10 17 0 21 11 4 10 6 0 6 -7 1 -10 6 -6 13 4 6 3 8 -4 4 -6 -3 -9 -15 -7 -26
2 -11 0 -22 -4 -25 -5 -2 -7 9 -6 26 2 17 8 35 15 39 9 5 6 10 -10 15 -20 6
-21 9 -7 16 13 8 14 15 7 35 -9 23 -8 25 12 19 13 -4 18 -3 11 2 -6 4 -10 23
-8 41 1 18 -2 35 -8 39 -6 4 -7 1 -2 -7 5 -9 4 -11 -4 -6 -16 10 -2 29 16 21
13 -4 14 -3 3 10 -10 12 -10 15 1 15 8 0 5 6 -7 14 -12 10 -23 11 -31 5 -7 -7
-14 -6 -19 2 -5 8 -3 10 7 4 8 -5 11 -4 6 0 -4 5 -16 9 -27 10 -15 1 -17 -2
-9 -11 8 -9 5 -11 -10 -7 -12 3 -19 8 -16 12 6 10 -33 7 -42 -4 -5 -4 -2 -5 6
0 9 5 12 4 8 -2 -9 -14 -42 -10 -63 8 -11 9 -15 9 -10 2 4 -7 3 -13 -1 -13 -5
0 -15 6 -22 13 -12 10 -13 8 -7 -8 6 -15 4 -17 -5 -8 -6 6 -18 9 -27 6 -11 -5
-13 -2 -7 8 6 11 5 12 -6 2 -15 -15 -33 -18 -25 -5 9 14 -25 10 -40 -5z m331
-12 c3 -5 2 -12 -3 -15 -5 -3 -9 1 -9 9 0 17 3 19 12 6z m2 -86 c0 -17 -13
-20 -21 -6 -4 5 0 12 6 14 7 3 13 6 14 6 0 1 1 -6 1 -14z m-347 -145 c0 -5 -5
-10 -11 -10 -5 0 -7 5 -4 10 3 6 8 10 11 10 2 0 4 -4 4 -10z m0 -240 c0 -5 -5
-10 -11 -10 -5 0 -7 5 -4 10 3 6 8 10 11 10 2 0 4 -4 4 -10z m0 -80 c0 -5 -5
-10 -11 -10 -5 0 -7 5 -4 10 3 6 8 10 11 10 2 0 4 -4 4 -10z"/>
<path d="M1030 909 c0 -5 5 -7 10 -4 6 3 10 8 10 11 0 2 -4 4 -10 4 -5 0 -10
-5 -10 -11z"/>
<path d="M1510 909 c0 -5 5 -7 10 -4 6 3 10 8 10 11 0 2 -4 4 -10 4 -5 0 -10
-5 -10 -11z"/>
<path d="M1830 909 c0 -5 5 -7 10 -4 6 3 10 8 10 11 0 2 -4 4 -10 4 -5 0 -10
-5 -10 -11z"/>
<path d="M1950 910 c0 -5 5 -10 11 -10 5 0 7 5 4 10 -3 6 -8 10 -11 10 -2 0
-4 -4 -4 -10z"/>
<path d="M1455 610 c3 -5 8 -10 11 -10 2 0 4 5 4 10 0 6 -5 10 -11 10 -5 0 -7
-4 -4 -10z"/>
<path d="M1530 616 c0 -2 7 -9 15 -16 13 -11 14 -10 9 4 -5 14 -24 23 -24 12z"/>
<path d="M1613 605 c0 -8 4 -12 9 -9 4 3 8 9 8 15 0 5 -4 9 -8 9 -5 0 -9 -7
-9 -15z"/>
<path d="M1690 616 c0 -2 7 -9 15 -16 13 -11 14 -10 9 4 -5 14 -24 23 -24 12z"/>
<path d="M1773 605 c0 -8 4 -12 9 -9 4 3 8 9 8 15 0 5 -4 9 -8 9 -5 0 -9 -7
-9 -15z"/>
<path d="M1850 616 c0 -2 7 -9 15 -16 13 -11 14 -10 9 4 -5 14 -24 23 -24 12z"/>
<path d="M2020 616 c0 -2 8 -10 18 -17 15 -13 16 -12 3 4 -13 16 -21 21 -21
13z"/>
<path d="M2055 610 c3 -5 8 -10 11 -10 2 0 4 5 4 10 0 6 -5 10 -11 10 -5 0 -7
-4 -4 -10z"/>
<path d="M2266 607 c3 -10 9 -15 12 -12 3 3 0 11 -7 18 -10 9 -11 8 -5 -6z"/>
<path d="M2290 616 c0 -2 7 -9 15 -16 13 -11 14 -10 9 4 -5 14 -24 23 -24 12z"/>
<path d="M1556 181 c-3 -5 1 -14 9 -21 10 -9 15 -9 15 -1 0 6 -5 11 -11 11 -5
0 -7 5 -4 10 3 6 4 10 1 10 -3 0 -7 -4 -10 -9z"/>
</g>
</svg>
