<svg id="pd_logo" xmlns="http://www.w3.org/2000/svg" width="533.482" height="100.482" viewBox="0 0 533.482 100.482">
  <defs>
    <style>
      .cls-1 {
        fill: #fff;
      }

      .cls-2 {
        fill: #f63;
      }

      .cls-3 {
        fill: #979797;
      }
    </style>
  </defs>
  <g id="Icon" transform="translate(0 0)">
    <path id="Path" class="cls-1" d="M32.518,32.309l-6.5,6.512L0,38.771V30.694H22.763V8.077H9.756v17.77H0V0H32.518V32.309Z" transform="translate(38.209 12.924)"/>
    <path id="Path_Copy" data-name="Path Copy" class="cls-1" d="M32.518,6.462,26.015,0H14.633V8.431h8.13V30.694H9.756V0H0V38.771H32.518V6.462Z" transform="translate(32.518 38.771) rotate(180)"/>
    <path id="Path_2.1" data-name="Path 2.1" class="cls-2" d="M9.756,0V14.539h9.756v8.077H0V0Z" transform="translate(22.763 43.617)"/>
  </g>
  <path id="PRODEERS" class="cls-1" d="M5.31,76.534V22.846h22.3q7.1,0,10.763,4.384t3.665,12.076q0,7.692-3.665,12.076T27.609,55.767H14.955V76.534Zm9.645-29.151H26.606a5.45,5.45,0,0,0,3.9-1.346,5.744,5.744,0,0,0,1.427-4.346V36.922A5.744,5.744,0,0,0,30.5,32.576a5.45,5.45,0,0,0-3.9-1.346H14.955ZM58.844,76.534H49.2V22.846H71.5q7.1,0,10.763,4.307t3.665,12A19.665,19.665,0,0,1,83.611,49.19a11.847,11.847,0,0,1-6.79,5.423l9.8,21.921H76.2L67.331,55.382H58.844ZM70.494,47.383a5.548,5.548,0,0,0,3.9-1.308q1.427-1.308,1.427-4.384V36.922q0-3.077-1.427-4.384a5.548,5.548,0,0,0-3.9-1.308H58.844V47.383Zm42.5,30.074a23.163,23.163,0,0,1-8.757-1.577A16.436,16.436,0,0,1,97.6,70.958a23.717,23.717,0,0,1-4.244-8.615,46.508,46.508,0,0,1-1.5-12.653,46.508,46.508,0,0,1,1.5-12.653A23.717,23.717,0,0,1,97.6,28.423a16.436,16.436,0,0,1,6.636-4.923,25.107,25.107,0,0,1,17.515,0,16.436,16.436,0,0,1,6.636,4.923,23.717,23.717,0,0,1,4.244,8.615,46.508,46.508,0,0,1,1.5,12.653,46.508,46.508,0,0,1-1.5,12.653,23.717,23.717,0,0,1-4.244,8.615,16.436,16.436,0,0,1-6.636,4.923A23.163,23.163,0,0,1,112.994,77.457Zm0-8.461q5.247,0,8.1-3.269t2.855-9.345V43q0-6.076-2.855-9.345t-8.1-3.269q-5.247,0-8.1,3.269T102.038,43V56.382q0,6.076,2.855,9.345T112.994,69ZM142.3,22.846h18.363a23.6,23.6,0,0,1,8.68,1.5,15.6,15.6,0,0,1,6.481,4.769,22.41,22.41,0,0,1,4.051,8.345,46.846,46.846,0,0,1,1.389,12.23,46.846,46.846,0,0,1-1.389,12.23,22.41,22.41,0,0,1-4.051,8.345,15.6,15.6,0,0,1-6.481,4.769,23.6,23.6,0,0,1-8.68,1.5H142.3Zm18.363,45.3a9.685,9.685,0,0,0,7.639-3.038Q171,62.074,171,56V43.383q0-6.076-2.7-9.115a9.685,9.685,0,0,0-7.639-3.038h-8.719V68.15Zm28.766,8.384V22.846h32.329V31.23H199.074v14H218.9v8.153H199.074V68.15h22.684v8.384Zm40.88,0V22.846h32.329V31.23H239.954v14h19.829v8.153H239.954V68.15h22.684v8.384Zm50.524,0h-9.645V22.846h22.3q7.1,0,10.763,4.307t3.665,12A19.665,19.665,0,0,1,305.6,49.19a11.847,11.847,0,0,1-6.79,5.423l9.8,21.921H298.194l-8.873-21.152h-8.487Zm11.651-29.151a5.548,5.548,0,0,0,3.9-1.308q1.427-1.308,1.427-4.384V36.922q0-3.077-1.427-4.384a5.548,5.548,0,0,0-3.9-1.308H280.834V47.383Zm39.1,30.074a24.351,24.351,0,0,1-10.609-2.192,21.751,21.751,0,0,1-7.909-6.5l6.327-6.076a16.2,16.2,0,0,0,5.4,4.807,14.468,14.468,0,0,0,6.944,1.654q8.642,0,8.642-7.845a7.066,7.066,0,0,0-1.543-4.923,9.461,9.461,0,0,0-5.092-2.461L329.043,53q-7.33-1.538-10.8-5.23T314.769,37.46q0-7.692,4.591-11.614t13.078-3.923a23.744,23.744,0,0,1,9.915,1.884,17.956,17.956,0,0,1,7.06,5.884l-6.327,5.923a13.71,13.71,0,0,0-4.552-4.038,13.243,13.243,0,0,0-6.25-1.346q-4.089,0-6.018,1.615t-1.929,5.23a6.523,6.523,0,0,0,1.5,4.615,9.414,9.414,0,0,0,4.9,2.384l4.707,1a33.717,33.717,0,0,1,6.674,2.077,13.822,13.822,0,0,1,4.475,3.077,11.371,11.371,0,0,1,2.546,4.346,19.142,19.142,0,0,1,.81,5.884q0,8.307-4.745,12.653T331.589,77.457Z" transform="translate(86.229 -2.288)"/>
  <path id="lab" class="cls-2" d="M14.2,60.393a3.15,3.15,0,0,1-2.37-.838,3.049,3.049,0,0,1-.81-2.213,9.741,9.741,0,0,1,.24-1.974l7.141-37.091H6.944l.48-2.872H22.366L14.325,56.924l1.02.359L29.088,46.813l1.8,2.094-9.362,7.239q-1.56,1.2-2.64,2.034a16.793,16.793,0,0,1-1.92,1.316,8.456,8.456,0,0,1-1.47.688A4.066,4.066,0,0,1,14.2,60.393Zm40.079-.718,1.2-7.119H55.3a18.031,18.031,0,0,1-4.351,5.683,9.927,9.927,0,0,1-6.631,2.154q-4.861,0-7.411-3.141t-2.55-8.764a30.994,30.994,0,0,1,.87-7.269A22.451,22.451,0,0,1,37.9,34.669a15.192,15.192,0,0,1,4.531-4.756,11.445,11.445,0,0,1,6.511-1.825A10.6,10.6,0,0,1,55.034,29.7a8.533,8.533,0,0,1,3.331,4.487h.18l.9-5.384h3.361L57.644,59.675Zm-9-2.273a9.774,9.774,0,0,0,7.081-2.991,18.113,18.113,0,0,0,2.55-3.44,13.183,13.183,0,0,0,1.59-4.517l1.32-7.717a6.979,6.979,0,0,0-.15-2.961,5.61,5.61,0,0,0-1.41-2.453,6.977,6.977,0,0,0-2.671-1.645,11.155,11.155,0,0,0-3.811-.6,10.146,10.146,0,0,0-7.531,3.141,11.987,11.987,0,0,0-2.31,3.5,19.026,19.026,0,0,0-1.32,4.427l-.66,3.769q-.12.838-.18,1.526t-.06,1.346a9.989,9.989,0,0,0,1.83,6.192Q41.381,57.4,45.282,57.4Zm27.116-42h3.361l-3.421,20.52h.18a24.375,24.375,0,0,1,1.95-3.171,12.756,12.756,0,0,1,2.37-2.483,9.96,9.96,0,0,1,2.971-1.615,11.286,11.286,0,0,1,3.691-.568q4.861,0,7.411,3.141t2.55,8.764a31.37,31.37,0,0,1-.87,7.3,22.009,22.009,0,0,1-2.671,6.551,15.3,15.3,0,0,1-4.531,4.726,11.445,11.445,0,0,1-6.511,1.825,10.6,10.6,0,0,1-6.091-1.615,8.532,8.532,0,0,1-3.331-4.487h-.18l-.9,5.384H65.017Zm5.641,42a10.335,10.335,0,0,0,4.231-.838,10.011,10.011,0,0,0,3.271-2.3,12.844,12.844,0,0,0,2.31-3.5,18.139,18.139,0,0,0,1.35-4.427l.66-3.769q.12-.838.18-1.526t.06-1.346a9.989,9.989,0,0,0-1.83-6.192q-1.83-2.423-5.731-2.423a9.774,9.774,0,0,0-7.081,2.991,18.114,18.114,0,0,0-2.55,3.44,13.183,13.183,0,0,0-1.59,4.517L70,49.745a6.141,6.141,0,0,0,.12,2.961,5.872,5.872,0,0,0,1.44,2.453A6.977,6.977,0,0,0,74.229,56.8,11.155,11.155,0,0,0,78.039,57.4Z" transform="translate(440.02 7.806)"/>
  <path id="powered_by_ZgH" data-name="powered by ZgH" class="cls-3" d="M-145.554-6.256a9.727,9.727,0,0,1-.131,1.538,10.914,10.914,0,0,1-.383,1.6,11.368,11.368,0,0,1-.6,1.5,6.062,6.062,0,0,1-.788,1.243,5.258,5.258,0,0,1-1.871,1.461,5.093,5.093,0,0,1-2.155.5,6.987,6.987,0,0,1-1.444-.131,4.248,4.248,0,0,1-1.138-.414l-.963,4.493-1.772.327,2.647-12.323q.109-.567.175-.96a4.288,4.288,0,0,0,.066-.7,2.742,2.742,0,0,0-.044-.513,3.817,3.817,0,0,0-.131-.491l1.6-.742a4.027,4.027,0,0,1,.208.611,2.881,2.881,0,0,1,.077.7,3.381,3.381,0,0,1-.033.458q-.033.24-.077.545a5.471,5.471,0,0,1,1.958-1.679,4.641,4.641,0,0,1,2-.523,2.436,2.436,0,0,1,2.111.949A4.234,4.234,0,0,1-145.554-6.256Zm-1.86.109a2.519,2.519,0,0,0-.394-1.6,1.483,1.483,0,0,0-1.2-.469,3.343,3.343,0,0,0-1.783.611,7.149,7.149,0,0,0-1.827,1.788l-1.138,5.344a2.527,2.527,0,0,0,.985.5,4.9,4.9,0,0,0,1.269.153,3.132,3.132,0,0,0,1.521-.414,3.3,3.3,0,0,0,1.171-1.025,7.158,7.158,0,0,0,.547-1.036,9.819,9.819,0,0,0,.449-1.254,11.706,11.706,0,0,0,.3-1.33A7.945,7.945,0,0,0-147.414-6.147Zm14.024.24a9.433,9.433,0,0,1-.449,2.944,7.664,7.664,0,0,1-1.247,2.388A5.95,5.95,0,0,1-137,1.029a5.169,5.169,0,0,1-2.45.589A3.549,3.549,0,0,1-142.185.582a4.083,4.083,0,0,1-.963-2.89,9.47,9.47,0,0,1,.459-3,7.682,7.682,0,0,1,1.269-2.4,5.815,5.815,0,0,1,1.925-1.581,5.236,5.236,0,0,1,2.407-.567,3.418,3.418,0,0,1,2.8,1.091A4.353,4.353,0,0,1-133.389-5.907Zm-1.882-.2a2.268,2.268,0,0,0-.634-1.821,2.238,2.238,0,0,0-1.488-.534,2.9,2.9,0,0,0-1.641.48,3.944,3.944,0,0,0-1.214,1.32A7,7,0,0,0-141-4.674a11.065,11.065,0,0,0-.263,2.476,2.568,2.568,0,0,0,.547,1.843,2.143,2.143,0,0,0,1.6.556,2.8,2.8,0,0,0,1.663-.513,4.078,4.078,0,0,0,1.2-1.385,7.482,7.482,0,0,0,.733-2.017A11.1,11.1,0,0,0-135.271-6.1Zm13.412,7.525h-1.619l-.656-8.833h-.044a5.177,5.177,0,0,1-.2.513q-.153.36-.263.6l-3.851,7.721h-1.6l-.7-10.862,1.728-.371.219,7.176q.022.676.011,1.189t-.011.622h.066q.109-.24.306-.687t.416-.883l3.479-7.132h1.838l.372,7.219q0,.24.022.5t.033.5q.011.24.022.4t.011.185h.044q.022-.065.109-.251t.175-.4l.372-.851,3.282-7.307h1.86Zm15.075-8.441a2.874,2.874,0,0,1-.273,1.265,3.423,3.423,0,0,1-.733,1,4.386,4.386,0,0,1-1.805.938,11.21,11.21,0,0,1-2.9.305q-.306,0-.645-.011t-.711-.033A6.4,6.4,0,0,0-114-2.177a2.244,2.244,0,0,0,.645,1.745,2.182,2.182,0,0,0,1.521.589,4.807,4.807,0,0,0,1.718-.273,4.81,4.81,0,0,0,1.477-.971l.722,1.047a6.824,6.824,0,0,1-.842.72,4.081,4.081,0,0,1-.952.5,5.856,5.856,0,0,1-1.171.294,9.743,9.743,0,0,1-1.455.1,3.721,3.721,0,0,1-1.411-.262A3.223,3.223,0,0,1-114.88.549a3.551,3.551,0,0,1-.755-1.232,4.739,4.739,0,0,1-.274-1.669,8.7,8.7,0,0,1,.153-1.6,9.523,9.523,0,0,1,.449-1.6,7.769,7.769,0,0,1,.755-1.494,6.53,6.53,0,0,1,1.05-1.254,5.118,5.118,0,0,1,3.588-1.527,3.239,3.239,0,0,1,2.341.763A2.723,2.723,0,0,1-106.784-7.019Zm-1.728.044a1.591,1.591,0,0,0-.372-1.069,1.624,1.624,0,0,0-1.291-.436,2.349,2.349,0,0,0-1.039.251,3.312,3.312,0,0,0-.963.731,5.524,5.524,0,0,0-.81,1.145,6.632,6.632,0,0,0-.58,1.516q.241.022.547.022h.569q.744,0,1.28-.055a7.066,7.066,0,0,0,.941-.153,2.7,2.7,0,0,0,.678-.251,2.24,2.24,0,0,0,.492-.371A1.807,1.807,0,0,0-108.513-6.975ZM-97.9-7.848a2.419,2.419,0,0,0-.3-.065,2.647,2.647,0,0,0-.383-.022,2.6,2.6,0,0,0-1.586.643,7.8,7.8,0,0,0-1.608,1.821l-1.444,6.8h-1.663l1.575-7.372a10.562,10.562,0,0,0,.284-2.028,3.427,3.427,0,0,0-.153-1.047l1.6-.742a4.191,4.191,0,0,1,.2.611,2.7,2.7,0,0,1,.066.611,4.623,4.623,0,0,1-.044.611q-.044.327-.131.763a7.849,7.849,0,0,1,.853-1.069,6.522,6.522,0,0,1,.919-.807,4.2,4.2,0,0,1,.908-.5,2.33,2.33,0,0,1,.842-.174,2.564,2.564,0,0,1,.47.033q.164.033.339.076Zm10.218.829a2.874,2.874,0,0,1-.273,1.265,3.423,3.423,0,0,1-.733,1,4.386,4.386,0,0,1-1.805.938,11.21,11.21,0,0,1-2.9.305q-.306,0-.645-.011t-.711-.033A6.4,6.4,0,0,0-94.9-2.177a2.244,2.244,0,0,0,.645,1.745,2.182,2.182,0,0,0,1.521.589,4.807,4.807,0,0,0,1.718-.273,4.81,4.81,0,0,0,1.477-.971l.722,1.047a6.825,6.825,0,0,1-.842.72,4.081,4.081,0,0,1-.952.5,5.856,5.856,0,0,1-1.171.294,9.743,9.743,0,0,1-1.455.1,3.721,3.721,0,0,1-1.411-.262A3.223,3.223,0,0,1-95.779.549a3.551,3.551,0,0,1-.755-1.232,4.739,4.739,0,0,1-.273-1.669,8.7,8.7,0,0,1,.153-1.6,9.522,9.522,0,0,1,.449-1.6,7.768,7.768,0,0,1,.755-1.494A6.53,6.53,0,0,1-94.4-8.306a5.118,5.118,0,0,1,3.588-1.527,3.239,3.239,0,0,1,2.341.763A2.723,2.723,0,0,1-87.684-7.019Zm-1.728.044a1.591,1.591,0,0,0-.372-1.069,1.624,1.624,0,0,0-1.291-.436,2.349,2.349,0,0,0-1.039.251,3.312,3.312,0,0,0-.963.731,5.524,5.524,0,0,0-.81,1.145,6.632,6.632,0,0,0-.58,1.516q.241.022.547.022h.569q.744,0,1.28-.055a7.066,7.066,0,0,0,.941-.153,2.7,2.7,0,0,0,.678-.251,2.24,2.24,0,0,0,.492-.371A1.807,1.807,0,0,0-89.412-6.975Zm12.58,4.8a7.95,7.95,0,0,0-.2,1.483,1.779,1.779,0,0,0,.142.785,3.515,3.515,0,0,0,.4.611l-1.466,1.091a3.327,3.327,0,0,1-.6-.807,2.487,2.487,0,0,1-.23-1.156l.022-.371A5.31,5.31,0,0,1-80.464,1a4.437,4.437,0,0,1-2.122.491,2.754,2.754,0,0,1-2.3-.938,4.27,4.27,0,0,1-.744-2.7A8.842,8.842,0,0,1-85-5.4,7.965,7.965,0,0,1-83.2-8.175a4.856,4.856,0,0,1,1.838-1.189,5.73,5.73,0,0,1,1.947-.382,8.469,8.469,0,0,1,1.455.1,3.327,3.327,0,0,1,.952.316l1.116-5.256,1.663.284Zm-.525-5.693a4.039,4.039,0,0,0-.919-.36,5.445,5.445,0,0,0-1.181-.1A3.447,3.447,0,0,0-80.836-8a3.7,3.7,0,0,0-1.247.872,4.326,4.326,0,0,0-.689,1.014,9.278,9.278,0,0,0-.547,1.32,10.765,10.765,0,0,0-.361,1.407,7.275,7.275,0,0,0-.131,1.32q0,2.116,1.6,2.116a3.719,3.719,0,0,0,1.936-.589,5.551,5.551,0,0,0,1.805-2.007ZM-57.622-6.19a9.166,9.166,0,0,1-.711,3.632A8.157,8.157,0,0,1-60.16.179a5.168,5.168,0,0,1-1.663,1.058,5.062,5.062,0,0,1-1.86.36A8.776,8.776,0,0,1-65.86,1.3,5.01,5.01,0,0,1-67.883.266q.088-.262.208-.742t.208-.894l1.991-9.357q.109-.545.164-1.08a9.98,9.98,0,0,0,.055-1.014,4.581,4.581,0,0,0-.131-1.221l1.816-.7a4.426,4.426,0,0,1,.109.556,5.027,5.027,0,0,1,.044.687,12.584,12.584,0,0,1-.306,2.53l-.306,1.461q-.088.414-.241.971T-64.558-7.5a5.794,5.794,0,0,1,1.783-1.625,4.262,4.262,0,0,1,2.2-.643,2.638,2.638,0,0,1,2.232.938A4.242,4.242,0,0,1-57.622-6.19Zm-1.882.022a2.376,2.376,0,0,0-.427-1.516,1.619,1.619,0,0,0-1.346-.534,3.072,3.072,0,0,0-1.772.633,8.861,8.861,0,0,0-1.816,1.81L-65.98-.5A2.46,2.46,0,0,0-65,.015a5.291,5.291,0,0,0,1.313.142,3.044,3.044,0,0,0,1.3-.327A3.138,3.138,0,0,0-61.32-.934a5.271,5.271,0,0,0,.777-1.134,9.153,9.153,0,0,0,.569-1.352,9.672,9.672,0,0,0,.35-1.407A8.028,8.028,0,0,0-59.5-6.168Zm8.927,5.845q-.985,1.81-1.728,3.152a6.581,6.581,0,0,1-1.641,2.039,4.936,4.936,0,0,1-.963.567,4.891,4.891,0,0,1-1.16.371l-.394-1.156A2.536,2.536,0,0,0-55.445,4.3a4.774,4.774,0,0,0,.908-.654,3.8,3.8,0,0,0,.711-.883,9.8,9.8,0,0,0,.689-1.429l-.7.087q0-.262-.022-.752t-.055-1.058Q-53.946-.956-54-1.512t-.1-.971L-55-9.4l1.794-.371.744,6.958q.022.349.044.752t.033.8q.011.393,0,.7t-.011.458h.044l1.181-2.29,3.654-7.132h1.969ZM-37.6-1.61q-.328.414-.613.742t-.613.7q.394-.022.656-.022h6.586l-.569,1.527H-41.1V-.04L-32.33-10.7q.306-.349.634-.742t.634-.7q-.306.022-.678.022h-6.476l.613-1.5h8.577v1.418ZM-20.559-2q-.109.5-.164.84a3.8,3.8,0,0,0-.055.6A1.524,1.524,0,0,0-20.646.1a3.864,3.864,0,0,0,.372.6l-1.335,1.091a2.781,2.781,0,0,1-.613-.829A2.622,2.622,0,0,1-22.441-.17V-.388a1.106,1.106,0,0,1,.022-.218A7.054,7.054,0,0,1-24.5,1.16a4.483,4.483,0,0,1-2.079.545,2.576,2.576,0,0,1-1.7-.5,2.076,2.076,0,0,1-.6-1.679,6.936,6.936,0,0,1,.055-.84q.055-.447.12-.752l1.575-7.372,1.75-.327L-26.9-2.461q-.088.436-.142.785a4.118,4.118,0,0,0-.055.633,1.579,1.579,0,0,0,.241,1,1.042,1.042,0,0,0,.831.284,3.778,3.778,0,0,0,1.9-.676,6.437,6.437,0,0,0,1.991-2.094l1.466-6.892,1.75-.284ZM-1.459-7.7a3.91,3.91,0,0,1-.055.589q-.055.349-.12.676L-3.3,1.335h-1.75l1.619-7.59A4.471,4.471,0,0,0-3.3-7.3q0-.96-1.072-.96a1.785,1.785,0,0,0-.733.185,5.361,5.361,0,0,0-.864.513,7.97,7.97,0,0,0-.93.785A13.051,13.051,0,0,0-7.8-5.8L-9.335,1.335h-1.728l1.575-7.416q.088-.371.153-.742a3.5,3.5,0,0,0,.066-.523,1.091,1.091,0,0,0-.186-.665.81.81,0,0,0-.689-.251,3.269,3.269,0,0,0-1.63.643,8.648,8.648,0,0,0-1.98,1.865l-1.51,7.089h-1.641l1.663-7.786q.109-.567.175-.96A4.286,4.286,0,0,0-15-8.11a3.571,3.571,0,0,0-.153-1l1.6-.742A3.071,3.071,0,0,1-13.3-8.589a3.713,3.713,0,0,1-.044.567q-.044.284-.109.567a7.245,7.245,0,0,1,2.166-1.81,4.309,4.309,0,0,1,1.86-.5A1.629,1.629,0,0,1-8-9.156a2.837,2.837,0,0,1,.438,1.679,7.208,7.208,0,0,1,2.188-1.81,4.437,4.437,0,0,1,1.9-.523,1.958,1.958,0,0,1,.864.185,1.924,1.924,0,0,1,.634.48,2.062,2.062,0,0,1,.383.676A2.366,2.366,0,0,1-1.459-7.7Zm18.313-1.2q-.109.305-.3.971T16.22-6.561L15.191-1.654q-.088.371-.164.807t-.164.862q-.088.425-.153.8a5.4,5.4,0,0,1-.131.589,8.788,8.788,0,0,1-.766,2.039A4.232,4.232,0,0,1,12.664,4.8a4.372,4.372,0,0,1-1.608.752,8.824,8.824,0,0,1-2.122.229,7.579,7.579,0,0,1-1.882-.229A9.922,9.922,0,0,1,5.105,4.8L5.74,3.428a6.666,6.666,0,0,0,1.619.709,6.625,6.625,0,0,0,1.728.207,7.645,7.645,0,0,0,1.433-.12A2.833,2.833,0,0,0,11.592,3.8a2.419,2.419,0,0,0,.744-.829,5.265,5.265,0,0,0,.492-1.33l.459-1.985A4.766,4.766,0,0,1,11.57,1.127a5.062,5.062,0,0,1-2.111.4A2.7,2.7,0,0,1,7.282.582a4.106,4.106,0,0,1-.8-2.715,8.049,8.049,0,0,1,.2-1.756,9.93,9.93,0,0,1,.536-1.69,8.043,8.043,0,0,1,.81-1.483,6.875,6.875,0,0,1,1-1.156,6.036,6.036,0,0,1,4.2-1.636,10.111,10.111,0,0,1,1.1.055,6.685,6.685,0,0,1,.919.164,4.29,4.29,0,0,1,.81.294A8.277,8.277,0,0,1,16.854-8.895Zm-1.969.872a3.186,3.186,0,0,0-.81-.251,5.908,5.908,0,0,0-1.006-.076,4.378,4.378,0,0,0-1.488.251,3.769,3.769,0,0,0-1.335.862,4.222,4.222,0,0,0-.744.981,8.779,8.779,0,0,0-.613,1.32A10.112,10.112,0,0,0,8.475-3.5a6.492,6.492,0,0,0-.153,1.32,2.546,2.546,0,0,0,.47,1.734,1.679,1.679,0,0,0,1.3.513,3.415,3.415,0,0,0,1.86-.589,5.96,5.96,0,0,0,1.772-2.028ZM28.8-5.907a9.433,9.433,0,0,1-.449,2.944A7.664,7.664,0,0,1,27.1-.574a5.951,5.951,0,0,1-1.914,1.6,5.169,5.169,0,0,1-2.45.589A3.549,3.549,0,0,1,20,.582a4.083,4.083,0,0,1-.963-2.89,9.47,9.47,0,0,1,.459-3,7.682,7.682,0,0,1,1.269-2.4A5.815,5.815,0,0,1,22.7-9.287,5.236,5.236,0,0,1,25.1-9.854a3.418,3.418,0,0,1,2.8,1.091A4.353,4.353,0,0,1,28.8-5.907Zm-1.882-.2a2.268,2.268,0,0,0-.634-1.821A2.238,2.238,0,0,0,24.8-8.458a2.9,2.9,0,0,0-1.641.48,3.944,3.944,0,0,0-1.214,1.32,7,7,0,0,0-.755,1.985A11.065,11.065,0,0,0,20.924-2.2a2.568,2.568,0,0,0,.547,1.843,2.143,2.143,0,0,0,1.6.556,2.8,2.8,0,0,0,1.663-.513,4.078,4.078,0,0,0,1.2-1.385,7.481,7.481,0,0,0,.733-2.017A11.1,11.1,0,0,0,26.919-6.1Zm8.423-8.637a2.328,2.328,0,0,1,.12.556,6.681,6.681,0,0,1,.033.687,10.151,10.151,0,0,1-.1,1.374q-.1.72-.23,1.352L33.089-1.065a3.941,3.941,0,0,0-.109.785q0,.523.459.523h.219a.435.435,0,0,0,.2-.044l.109,1.112a2.544,2.544,0,0,1-.667.2,4.9,4.9,0,0,1-.667.044,1.582,1.582,0,0,1-1.061-.327,1.192,1.192,0,0,1-.383-.96,3.15,3.15,0,0,1,.033-.447q.033-.229.077-.491l2.144-10.1q.109-.589.175-1.091a7.253,7.253,0,0,0,.066-.938,5.026,5.026,0,0,0-.044-.687,4.426,4.426,0,0,0-.109-.556ZM46.019-2.177a7.95,7.95,0,0,0-.2,1.483,1.778,1.778,0,0,0,.142.785,3.514,3.514,0,0,0,.4.611L44.9,1.793a3.327,3.327,0,0,1-.6-.807,2.487,2.487,0,0,1-.23-1.156l.022-.371A5.31,5.31,0,0,1,42.387,1a4.437,4.437,0,0,1-2.122.491,2.754,2.754,0,0,1-2.3-.938,4.27,4.27,0,0,1-.744-2.7,8.842,8.842,0,0,1,.624-3.25,7.965,7.965,0,0,1,1.805-2.77A4.856,4.856,0,0,1,41.49-9.364a5.73,5.73,0,0,1,1.947-.382,8.469,8.469,0,0,1,1.455.1,3.328,3.328,0,0,1,.952.316l1.116-5.256,1.663.284ZM45.494-7.87a4.039,4.039,0,0,0-.919-.36,5.445,5.445,0,0,0-1.181-.1A3.447,3.447,0,0,0,42.015-8a3.7,3.7,0,0,0-1.247.872,4.326,4.326,0,0,0-.689,1.014,9.28,9.28,0,0,0-.547,1.32,10.765,10.765,0,0,0-.361,1.407,7.274,7.274,0,0,0-.131,1.32q0,2.116,1.6,2.116a3.719,3.719,0,0,0,1.936-.589,5.551,5.551,0,0,0,1.805-2.007Zm13.521.851a2.874,2.874,0,0,1-.273,1.265,3.423,3.423,0,0,1-.733,1,4.386,4.386,0,0,1-1.805.938,11.21,11.21,0,0,1-2.9.305q-.306,0-.645-.011t-.711-.033A6.4,6.4,0,0,0,51.8-2.177a2.244,2.244,0,0,0,.645,1.745,2.182,2.182,0,0,0,1.521.589,4.807,4.807,0,0,0,1.718-.273,4.81,4.81,0,0,0,1.477-.971L57.878-.04a6.825,6.825,0,0,1-.842.72,4.081,4.081,0,0,1-.952.5,5.856,5.856,0,0,1-1.171.294,9.743,9.743,0,0,1-1.455.1,3.721,3.721,0,0,1-1.411-.262A3.223,3.223,0,0,1,50.92.549a3.551,3.551,0,0,1-.755-1.232,4.739,4.739,0,0,1-.273-1.669,8.7,8.7,0,0,1,.153-1.6,9.523,9.523,0,0,1,.449-1.6,7.767,7.767,0,0,1,.755-1.494A6.53,6.53,0,0,1,52.3-8.306a5.118,5.118,0,0,1,3.588-1.527,3.239,3.239,0,0,1,2.341.763A2.723,2.723,0,0,1,59.015-7.019Zm-1.728.044a1.591,1.591,0,0,0-.372-1.069,1.624,1.624,0,0,0-1.291-.436,2.349,2.349,0,0,0-1.039.251,3.312,3.312,0,0,0-.963.731,5.524,5.524,0,0,0-.81,1.145,6.632,6.632,0,0,0-.58,1.516q.241.022.547.022h.569q.744,0,1.28-.055a7.066,7.066,0,0,0,.941-.153,2.7,2.7,0,0,0,.678-.251,2.24,2.24,0,0,0,.492-.371A1.807,1.807,0,0,0,57.287-6.975Zm13.477-.633a3.768,3.768,0,0,1-.066.7L68.926,1.335H67.2l1.575-7.35a6,6,0,0,0,.142-.709,4.006,4.006,0,0,0,.033-.469q0-1.091-1.05-1.091a3.633,3.633,0,0,0-1.674.578,8,8,0,0,0-2.133,1.952l-1.51,7.089H60.919L62.582-6.43q.131-.567.186-.96a5.12,5.12,0,0,0,.055-.7,3.64,3.64,0,0,0-.153-1.025l1.6-.742q.109.327.186.633a2.78,2.78,0,0,1,.077.676,4.539,4.539,0,0,1-.153,1.091A5.86,5.86,0,0,1,66.41-9.2,4.9,4.9,0,0,1,68.6-9.767a2.147,2.147,0,0,1,1.586.578A2.133,2.133,0,0,1,70.764-7.608Zm11.9.589a2.874,2.874,0,0,1-.273,1.265,3.424,3.424,0,0,1-.733,1,4.386,4.386,0,0,1-1.805.938,11.21,11.21,0,0,1-2.9.305q-.306,0-.645-.011T75.6-3.551a6.4,6.4,0,0,0-.153,1.374,2.244,2.244,0,0,0,.645,1.745,2.182,2.182,0,0,0,1.521.589A4.807,4.807,0,0,0,79.33-.116a4.81,4.81,0,0,0,1.477-.971L81.529-.04a6.825,6.825,0,0,1-.842.72,4.081,4.081,0,0,1-.952.5,5.856,5.856,0,0,1-1.171.294,9.743,9.743,0,0,1-1.455.1A3.721,3.721,0,0,1,75.7,1.313,3.223,3.223,0,0,1,74.571.549a3.551,3.551,0,0,1-.755-1.232,4.738,4.738,0,0,1-.273-1.669,8.7,8.7,0,0,1,.153-1.6,9.524,9.524,0,0,1,.449-1.6A7.767,7.767,0,0,1,74.9-7.052a6.53,6.53,0,0,1,1.05-1.254,5.118,5.118,0,0,1,3.588-1.527,3.239,3.239,0,0,1,2.341.763A2.723,2.723,0,0,1,82.667-7.019Zm-1.728.044a1.591,1.591,0,0,0-.372-1.069,1.624,1.624,0,0,0-1.291-.436,2.349,2.349,0,0,0-1.039.251,3.312,3.312,0,0,0-.963.731,5.523,5.523,0,0,0-.81,1.145,6.632,6.632,0,0,0-.58,1.516q.241.022.547.022H77q.744,0,1.28-.055a7.067,7.067,0,0,0,.941-.153,2.7,2.7,0,0,0,.678-.251,2.241,2.241,0,0,0,.492-.371A1.807,1.807,0,0,0,80.938-6.975Zm13.478-.633a3.769,3.769,0,0,1-.066.7L92.578,1.335H90.849l1.575-7.35a6.006,6.006,0,0,0,.142-.709,4.008,4.008,0,0,0,.033-.469q0-1.091-1.05-1.091a3.633,3.633,0,0,0-1.674.578,8,8,0,0,0-2.133,1.952l-1.51,7.089H84.57L86.233-6.43q.131-.567.186-.96a5.121,5.121,0,0,0,.055-.7,3.64,3.64,0,0,0-.153-1.025l1.6-.742q.109.327.186.633a2.78,2.78,0,0,1,.077.676,4.539,4.539,0,0,1-.153,1.091A5.86,5.86,0,0,1,90.062-9.2a4.9,4.9,0,0,1,2.188-.567,2.147,2.147,0,0,1,1.586.578A2.133,2.133,0,0,1,94.416-7.608Zm17.547,8.942h-1.794l1.553-7.241H105.4l-1.553,7.241H102.1l3.194-14.962h1.75l-1.335,6.26h6.323l1.335-6.26h1.794Zm6.192,0h-1.816l2.319-10.818,1.86-.284Zm3.479-14.221a1.286,1.286,0,0,1-.383.949,1.294,1.294,0,0,1-.952.382,1.294,1.294,0,0,1-.952-.382,1.26,1.26,0,0,1-.383-.927,1.322,1.322,0,0,1,.383-.96,1.276,1.276,0,0,1,.952-.393,1.294,1.294,0,0,1,.952.382A1.286,1.286,0,0,1,121.633-12.886Zm7.876,5.038a2.418,2.418,0,0,0-.3-.065,2.647,2.647,0,0,0-.383-.022,2.6,2.6,0,0,0-1.586.643,7.8,7.8,0,0,0-1.608,1.821l-1.444,6.8H122.53l1.575-7.372a10.561,10.561,0,0,0,.284-2.028,3.427,3.427,0,0,0-.153-1.047l1.6-.742a4.189,4.189,0,0,1,.2.611,2.7,2.7,0,0,1,.066.611,4.624,4.624,0,0,1-.044.611q-.044.327-.131.763a7.849,7.849,0,0,1,.853-1.069,6.522,6.522,0,0,1,.919-.807,4.2,4.2,0,0,1,.908-.5,2.33,2.33,0,0,1,.842-.174,2.564,2.564,0,0,1,.47.033q.164.033.339.076Zm8.949.022a8.79,8.79,0,0,0-1.236-.567,3.859,3.859,0,0,0-1.324-.218,3.365,3.365,0,0,0-1.772.425,1.324,1.324,0,0,0-.7,1.189,1.48,1.48,0,0,0,.241.894,2.315,2.315,0,0,0,.941.633l1.378.589a4.572,4.572,0,0,1,1.783,1.189,2.42,2.42,0,0,1,.514,1.559,3.416,3.416,0,0,1-.361,1.592,3.444,3.444,0,0,1-1,1.178,4.733,4.733,0,0,1-1.5.742,6.506,6.506,0,0,1-1.893.262,7.709,7.709,0,0,1-2.046-.273,5.557,5.557,0,0,1-1.718-.774l.7-1.309A5.591,5.591,0,0,0,133.71.309a3.349,3.349,0,0,0,1.893-.5,1.532,1.532,0,0,0,.755-1.33,1.788,1.788,0,0,0-.284-1.069,2.768,2.768,0,0,0-1.094-.763l-1.291-.567a4.363,4.363,0,0,1-1.63-1.1,2.379,2.379,0,0,1-.492-1.559,2.955,2.955,0,0,1,.317-1.363,3.1,3.1,0,0,1,.908-1.069,4.49,4.49,0,0,1,1.411-.7,6.153,6.153,0,0,1,1.805-.251,6.739,6.739,0,0,1,1.7.218,5,5,0,0,1,1.455.611Zm10.83.262a2.841,2.841,0,0,0-1.061-.6,4.061,4.061,0,0,0-1.149-.164A2.683,2.683,0,0,0,145.821-8a3.212,3.212,0,0,0-1.061.894,5.962,5.962,0,0,0-.558.981,11.156,11.156,0,0,0-.492,1.265,11,11,0,0,0-.35,1.385,7.378,7.378,0,0,0-.131,1.341,2.669,2.669,0,0,0,.5,1.756,1.914,1.914,0,0,0,1.553.6,3.776,3.776,0,0,0,2.6-1.178l.7,1.091a6.75,6.75,0,0,1-1.761,1.1,4.981,4.981,0,0,1-1.871.338,3.509,3.509,0,0,1-2.7-.938,3.921,3.921,0,0,1-.864-2.748,8.043,8.043,0,0,1,.23-1.876,10.231,10.231,0,0,1,.624-1.832,9.826,9.826,0,0,1,.9-1.592,5.477,5.477,0,0,1,1.05-1.156,5.031,5.031,0,0,1,3.26-1.243,3.882,3.882,0,0,1,2.647.916Zm11.99-.174a6.421,6.421,0,0,1-.175,1.287L159.44,1.335h-1.685l1.553-7.328q.066-.305.12-.622a3.088,3.088,0,0,0,.055-.491,1.126,1.126,0,0,0-.328-.883,1.229,1.229,0,0,0-.853-.294,2.593,2.593,0,0,0-.875.174,5.116,5.116,0,0,0-1,.5,8.671,8.671,0,0,0-1.039.785,7.524,7.524,0,0,0-.985,1.047l-1.51,7.11h-1.707l2.56-12a7.3,7.3,0,0,0,.109-3.381l1.816-.7a5.357,5.357,0,0,1,.131,1.756,15.366,15.366,0,0,1-.35,2.345l-.241,1.134q-.044.153-.1.414t-.142.545q-.088.284-.164.567t-.142.5a5.823,5.823,0,0,1,2.155-1.767,5.325,5.325,0,0,1,2.155-.523,2.3,2.3,0,0,1,1.685.6A1.931,1.931,0,0,1,161.278-7.739Zm11.9.72a2.874,2.874,0,0,1-.273,1.265,3.424,3.424,0,0,1-.733,1,4.387,4.387,0,0,1-1.805.938,11.209,11.209,0,0,1-2.9.305q-.306,0-.645-.011t-.711-.033a6.4,6.4,0,0,0-.153,1.374,2.244,2.244,0,0,0,.645,1.745,2.182,2.182,0,0,0,1.521.589,4.807,4.807,0,0,0,1.718-.273,4.811,4.811,0,0,0,1.477-.971l.722,1.047a6.827,6.827,0,0,1-.842.72,4.081,4.081,0,0,1-.952.5,5.857,5.857,0,0,1-1.171.294,9.743,9.743,0,0,1-1.455.1,3.721,3.721,0,0,1-1.411-.262,3.223,3.223,0,0,1-1.127-.763,3.551,3.551,0,0,1-.755-1.232,4.739,4.739,0,0,1-.273-1.669,8.7,8.7,0,0,1,.153-1.6,9.527,9.527,0,0,1,.449-1.6,7.768,7.768,0,0,1,.755-1.494,6.529,6.529,0,0,1,1.05-1.254,5.118,5.118,0,0,1,3.588-1.527,3.239,3.239,0,0,1,2.341.763A2.723,2.723,0,0,1,173.18-7.019Zm-1.728.044a1.591,1.591,0,0,0-.372-1.069,1.624,1.624,0,0,0-1.291-.436,2.349,2.349,0,0,0-1.039.251,3.312,3.312,0,0,0-.963.731,5.526,5.526,0,0,0-.81,1.145,6.633,6.633,0,0,0-.58,1.516q.241.022.547.022h.569q.744,0,1.28-.055a7.067,7.067,0,0,0,.941-.153,2.7,2.7,0,0,0,.678-.251,2.241,2.241,0,0,0,.492-.371A1.807,1.807,0,0,0,171.452-6.975Zm13.478-.633a3.768,3.768,0,0,1-.066.7l-1.772,8.244h-1.728l1.575-7.35a6,6,0,0,0,.142-.709,4.006,4.006,0,0,0,.033-.469q0-1.091-1.05-1.091a3.633,3.633,0,0,0-1.674.578,8,8,0,0,0-2.133,1.952l-1.51,7.089h-1.663l1.663-7.765q.131-.567.186-.96a5.117,5.117,0,0,0,.055-.7,3.64,3.64,0,0,0-.153-1.025l1.6-.742q.109.327.186.633a2.78,2.78,0,0,1,.077.676,4.538,4.538,0,0,1-.153,1.091A5.86,5.86,0,0,1,180.576-9.2a4.9,4.9,0,0,1,2.188-.567,2.147,2.147,0,0,1,1.586.578A2.133,2.133,0,0,1,184.929-7.608Z" transform="translate(246.744 94.612)"/>
</svg>
